<svg width="64" height="64" viewBox="0 0 64 64" fill="none" xmlns="http://www.w3.org/2000/svg">
<g id="calendar (1) 1" clip-path="url(#clip0_3256_460)">
<g id="Layer 2">
<g id="calendar">
<path id="Vector" d="M48 10.6667H45.3333V8.00004C45.3333 7.2928 45.0524 6.61452 44.5523 6.11442C44.0522 5.61433 43.3739 5.33337 42.6667 5.33337C41.9594 5.33337 41.2811 5.61433 40.7811 6.11442C40.281 6.61452 40 7.2928 40 8.00004V10.6667H24V8.00004C24 7.2928 23.719 6.61452 23.219 6.11442C22.7189 5.61433 22.0406 5.33337 21.3333 5.33337C20.6261 5.33337 19.9478 5.61433 19.4477 6.11442C18.9476 6.61452 18.6667 7.2928 18.6667 8.00004V10.6667H16C13.8783 10.6667 11.8434 11.5096 10.3431 13.0099C8.84285 14.5101 8 16.545 8 18.6667V50.6667C8 52.7884 8.84285 54.8233 10.3431 56.3236C11.8434 57.8238 13.8783 58.6667 16 58.6667H48C50.1217 58.6667 52.1566 57.8238 53.6569 56.3236C55.1571 54.8233 56 52.7884 56 50.6667V18.6667C56 16.545 55.1571 14.5101 53.6569 13.0099C52.1566 11.5096 50.1217 10.6667 48 10.6667ZM21.3333 45.3334C20.8059 45.3334 20.2903 45.177 19.8518 44.884C19.4133 44.5909 19.0715 44.1745 18.8697 43.6872C18.6678 43.1999 18.615 42.6637 18.7179 42.1465C18.8208 41.6292 19.0748 41.154 19.4477 40.7811C19.8207 40.4081 20.2958 40.1542 20.8131 40.0513C21.3304 39.9484 21.8666 40.0012 22.3538 40.203C22.8411 40.4049 23.2576 40.7467 23.5506 41.1852C23.8436 41.6237 24 42.1393 24 42.6667C24 43.374 23.719 44.0522 23.219 44.5523C22.7189 45.0524 22.0406 45.3334 21.3333 45.3334ZM42.6667 45.3334H32C31.2928 45.3334 30.6145 45.0524 30.1144 44.5523C29.6143 44.0522 29.3333 43.374 29.3333 42.6667C29.3333 41.9595 29.6143 41.2812 30.1144 40.7811C30.6145 40.281 31.2928 40 32 40H42.6667C43.3739 40 44.0522 40.281 44.5523 40.7811C45.0524 41.2812 45.3333 41.9595 45.3333 42.6667C45.3333 43.374 45.0524 44.0522 44.5523 44.5523C44.0522 45.0524 43.3739 45.3334 42.6667 45.3334ZM50.6667 29.3334H13.3333V18.6667C13.3333 17.9595 13.6143 17.2812 14.1144 16.7811C14.6145 16.281 15.2928 16 16 16H18.6667V18.6667C18.6667 19.374 18.9476 20.0522 19.4477 20.5523C19.9478 21.0524 20.6261 21.3334 21.3333 21.3334C22.0406 21.3334 22.7189 21.0524 23.219 20.5523C23.719 20.0522 24 19.374 24 18.6667V16H40V18.6667C40 19.374 40.281 20.0522 40.7811 20.5523C41.2811 21.0524 41.9594 21.3334 42.6667 21.3334C43.3739 21.3334 44.0522 21.0524 44.5523 20.5523C45.0524 20.0522 45.3333 19.374 45.3333 18.6667V16H48C48.7072 16 49.3855 16.281 49.8856 16.7811C50.3857 17.2812 50.6667 17.9595 50.6667 18.6667V29.3334Z" fill="#D9D9D9"/>
</g>
</g>
</g>
<defs>
<clipPath id="clip0_3256_460">
<rect width="64" height="64" fill="white"/>
</clipPath>
</defs>
</svg>
