<svg width="64" height="64" viewBox="0 0 64 64" fill="none" xmlns="http://www.w3.org/2000/svg">
<g id="downtown-core 1">
<path id="Vector" d="M39.2809 7.94765C39.2809 7.79178 39.2502 7.63744 39.1905 7.49344C39.1309 7.34944 39.0435 7.21859 38.9333 7.10838C38.823 6.99817 38.6922 6.91074 38.5482 6.85109C38.4042 6.79144 38.2499 6.76074 38.094 6.76074H25.9026C25.5878 6.76074 25.2859 6.88579 25.0633 7.10838C24.8407 7.33097 24.7157 7.63286 24.7157 7.94765V49.3917H39.2809V7.94765ZM34.9731 45.3644H29.0328C28.7482 45.3635 28.4755 45.25 28.2743 45.0488C28.0731 44.8476 27.9596 44.5749 27.9587 44.2903C27.9587 43.6992 28.4428 43.2163 29.0328 43.2163H34.9731C35.5642 43.2163 36.0472 43.6992 36.0472 44.2903C36.0462 44.5749 35.9328 44.8476 35.7316 45.0488C35.5303 45.25 35.2577 45.3635 34.9731 45.3644ZM34.9731 39.0912H29.0328C28.4428 39.0912 27.9587 38.6083 27.9587 38.0172C27.9587 37.4261 28.4428 36.9431 29.0328 36.9431H34.9731C35.5642 36.9431 36.0472 37.4261 36.0472 38.0172C36.0472 38.6083 35.5642 39.0912 34.9731 39.0912ZM34.9731 32.8192H29.0328C28.4428 32.8192 27.9587 32.3351 27.9587 31.744C27.9587 31.1529 28.4428 30.67 29.0328 30.67H34.9731C35.5642 30.67 36.0472 31.1529 36.0472 31.744C36.0472 32.3351 35.5642 32.8181 34.9731 32.8181V32.8192ZM34.9731 26.5449H29.0328C28.4428 26.5449 27.9587 26.062 27.9587 25.4709C27.9587 24.8797 28.4428 24.3968 29.0328 24.3968H34.9731C35.5642 24.3968 36.0472 24.8809 36.0472 25.4709C36.0472 26.0608 35.5642 26.5449 34.9731 26.5449ZM34.9731 20.2729H29.0328C28.748 20.272 28.4752 20.1584 28.2739 19.9569C28.0726 19.7554 27.9593 19.4825 27.9587 19.1977C27.9587 18.6077 28.4428 18.1237 29.0328 18.1237H34.9731C35.5642 18.1237 36.0472 18.6077 36.0472 19.1977C36.0462 19.4823 35.9328 19.7549 35.7316 19.9561C35.5303 20.1574 35.2577 20.2708 34.9731 20.2717V20.2729ZM34.9731 13.9997H29.0328C28.8916 14.0002 28.7517 13.9727 28.6212 13.9189C28.4907 13.8651 28.3721 13.786 28.2723 13.6862C28.1724 13.5863 28.0933 13.4678 28.0395 13.3372C27.9857 13.2067 27.9583 13.0669 27.9587 12.9257C27.9587 12.3346 28.4428 11.8517 29.0328 11.8517H34.9731C35.5642 11.8517 36.0472 12.3346 36.0472 12.9257C36.0476 13.0669 36.0201 13.2067 35.9663 13.3372C35.9125 13.4678 35.8334 13.5863 35.7336 13.6862C35.6338 13.786 35.5152 13.8651 35.3847 13.9189C35.2542 13.9727 35.1143 14.0002 34.9731 13.9997ZM22.5664 18.9242C22.5664 18.6094 22.4414 18.3075 22.2188 18.085C21.9962 17.8624 21.6943 17.7373 21.3795 17.7373H9.1881C8.87331 17.7373 8.57142 17.8624 8.34883 18.085C8.12624 18.3075 8.00119 18.6094 8.00119 18.9242V49.3917H22.5664V18.9242ZM18.2493 44.5801H12.3194C12.178 44.5815 12.0377 44.5547 11.9068 44.5012C11.7758 44.4477 11.6569 44.3686 11.5569 44.2686C11.4569 44.1686 11.3778 44.0497 11.3243 43.9187C11.2708 43.7878 11.244 43.6475 11.2454 43.5061C11.2449 43.3649 11.2724 43.225 11.3262 43.0945C11.38 42.964 11.4591 42.8454 11.559 42.7456C11.6588 42.6457 11.7774 42.5666 11.9079 42.5128C12.0384 42.459 12.1783 42.4316 12.3194 42.432H18.2493C18.3905 42.4316 18.5304 42.459 18.6609 42.5128C18.7914 42.5666 18.91 42.6457 19.0098 42.7456C19.1096 42.8454 19.1887 42.964 19.2426 43.0945C19.2964 43.225 19.3238 43.3649 19.3234 43.5061C19.3248 43.6475 19.2979 43.7878 19.2445 43.9187C19.191 44.0497 19.1119 44.1686 19.0119 44.2686C18.9119 44.3686 18.7929 44.4477 18.662 44.5012C18.5311 44.5547 18.3908 44.5815 18.2493 44.5801ZM18.2493 38.3081H12.3194C12.1779 38.3095 12.0375 38.2826 11.9065 38.2291C11.7755 38.1755 11.6565 38.0964 11.5564 37.9962C11.4564 37.8961 11.3774 37.777 11.324 37.6459C11.2706 37.5148 11.2439 37.3744 11.2454 37.2329C11.2449 37.0917 11.2724 36.9518 11.3262 36.8213C11.38 36.6908 11.4591 36.5722 11.559 36.4724C11.6588 36.3726 11.7774 36.2935 11.9079 36.2397C12.0384 36.1859 12.1783 36.1584 12.3194 36.1588H18.2493C18.3905 36.1584 18.5304 36.1859 18.6609 36.2397C18.7914 36.2935 18.91 36.3726 19.0098 36.4724C19.1096 36.5722 19.1887 36.6908 19.2426 36.8213C19.2964 36.9518 19.3238 37.0917 19.3234 37.2329C19.3248 37.3743 19.2979 37.5146 19.2445 37.6456C19.191 37.7765 19.1119 37.8955 19.0119 37.9955C18.9119 38.0955 18.7929 38.1745 18.662 38.228C18.5311 38.2815 18.3908 38.3083 18.2493 38.3069V38.3081ZM18.2493 32.0338H12.3194C12.178 32.0352 12.0377 32.0083 11.9068 31.9549C11.7758 31.9014 11.6569 31.8223 11.5569 31.7223C11.4569 31.6223 11.3778 31.5033 11.3243 31.3724C11.2708 31.2414 11.244 31.1012 11.2454 30.9597C11.2449 30.8186 11.2724 30.6787 11.3262 30.5482C11.38 30.4176 11.4591 30.2991 11.559 30.1992C11.6588 30.0994 11.7774 30.0203 11.9079 29.9665C12.0384 29.9127 12.1783 29.8852 12.3194 29.8857H18.2493C18.3905 29.8852 18.5304 29.9127 18.6609 29.9665C18.7914 30.0203 18.91 30.0994 19.0098 30.1992C19.1096 30.2991 19.1887 30.4176 19.2426 30.5482C19.2964 30.6787 19.3238 30.8186 19.3234 30.9597C19.3248 31.1012 19.2979 31.2414 19.2445 31.3724C19.191 31.5033 19.1119 31.6223 19.0119 31.7223C18.9119 31.8223 18.7929 31.9014 18.662 31.9549C18.5311 32.0083 18.3908 32.0352 18.2493 32.0338ZM18.2493 25.7618H12.3194C12.1779 25.7632 12.0375 25.7363 11.9065 25.6828C11.7755 25.6292 11.6565 25.55 11.5564 25.4499C11.4564 25.3498 11.3774 25.2307 11.324 25.0996C11.2706 24.9685 11.2439 24.8281 11.2454 24.6866C11.2449 24.5454 11.2724 24.4055 11.3262 24.275C11.38 24.1445 11.4591 24.0259 11.559 23.9261C11.6588 23.8262 11.7774 23.7472 11.9079 23.6933C12.0384 23.6395 12.1783 23.6121 12.3194 23.6125H18.2493C18.3905 23.6121 18.5304 23.6395 18.6609 23.6933C18.7914 23.7472 18.91 23.8262 19.0098 23.9261C19.1096 24.0259 19.1887 24.1445 19.2426 24.275C19.2964 24.4055 19.3238 24.5454 19.3234 24.6866C19.3248 24.828 19.2979 24.9683 19.2445 25.0992C19.191 25.2302 19.1119 25.3491 19.0119 25.4491C18.9119 25.5492 18.7929 25.6282 18.662 25.6817C18.5311 25.7352 18.3908 25.7632 18.2493 25.7618ZM56.0047 28.0332C56.0047 27.7184 55.8796 27.4165 55.657 27.1939C55.4345 26.9713 55.1326 26.8463 54.8178 26.8463H42.6159C42.3011 26.8463 41.9992 26.9713 41.7766 27.1939C41.554 27.4165 41.429 27.7184 41.429 28.0332V49.3917H56.0047V28.0332ZM51.6876 45.9974H45.7472C45.4627 45.9965 45.19 45.883 44.9888 45.6818C44.7876 45.4806 44.6741 45.2079 44.6732 44.9234C44.6732 44.3334 45.1561 43.8493 45.7472 43.8493H51.6864C52.2775 43.8493 52.7605 44.3334 52.7605 44.9234C52.7595 45.2079 52.6461 45.4806 52.4449 45.6818C52.2436 45.883 51.9722 45.9965 51.6876 45.9974ZM51.6876 39.7254H45.7472C45.4625 39.7245 45.1896 39.6109 44.9884 39.4094C44.7871 39.2079 44.6738 38.935 44.6732 38.6502C44.6732 38.0602 45.1561 37.5762 45.7472 37.5762H51.6864C52.2775 37.5762 52.7605 38.0602 52.7605 38.6502C52.7598 38.935 52.6465 39.2079 52.4453 39.4094C52.244 39.6109 51.9724 39.7245 51.6876 39.7254ZM51.6876 33.4522H45.7472C45.1561 33.4522 44.6732 32.9682 44.6732 32.3782C44.6732 31.7882 45.1561 31.3042 45.7472 31.3042H51.6864C52.2775 31.3042 52.7605 31.7871 52.7605 32.3782C52.7605 32.9693 52.2787 33.4522 51.6876 33.4522ZM59.2489 51.5375H4.75115C4.57123 51.5375 4.39868 51.6089 4.27145 51.7362C4.14423 51.8634 4.07275 52.0359 4.07275 52.2159V57.2405H59.9273V52.2159C59.9273 52.0359 59.8558 51.8634 59.7286 51.7362C59.6014 51.6089 59.4288 51.5375 59.2489 51.5375Z" fill="#E26E40"/>
</g>
</svg>
