<svg width="65" height="64" viewBox="0 0 65 64" fill="none" xmlns="http://www.w3.org/2000/svg">
<g id="earth-core 1">
<path id="Earth Core" d="M56.7801 22.76C55.3112 24.8901 54.5169 27.4126 54.5001 30C54.4538 31.8615 53.7932 33.6555 52.6212 35.1024C51.4491 36.5494 49.8315 37.5681 48.0201 38C47.2221 38.2256 46.3859 38.2833 45.5644 38.1694C44.743 38.0555 43.954 37.7726 43.2474 37.3385C42.5407 36.9044 41.9318 36.3285 41.4589 35.6471C40.9861 34.9658 40.6596 34.1939 40.5001 33.38C40.5001 33.38 39.1401 28.96 41.5001 27.78C42.279 27.4214 42.976 26.9066 43.5477 26.2676C44.1194 25.6285 44.5538 24.8789 44.8238 24.065C45.0939 23.2512 45.1938 22.3905 45.1175 21.5364C45.0412 20.6824 44.7902 19.8531 44.3801 19.1C44.3552 19.0254 44.3142 18.9571 44.2601 18.9C43.7885 18.0864 43.4763 17.1905 43.3401 16.26C43.2234 15.3423 43.3886 14.4109 43.8137 13.5893C44.2388 12.7677 44.9037 12.0948 45.7201 11.66C46.2301 11.3129 46.7056 10.9178 47.1401 10.48C51.5355 13.4892 54.9006 17.7758 56.7801 22.76ZM30.5001 37.64C29.3418 37.2196 28.3411 36.4527 27.6338 35.4437C26.9266 34.4346 26.5472 33.2322 26.5472 32C26.5472 30.7678 26.9266 29.5654 27.6338 28.5563C28.3411 27.5473 29.3418 26.7804 30.5001 26.36V37.64ZM30.5001 22.2C28.2396 22.659 26.2072 23.8855 24.7474 25.6715C23.2876 27.4575 22.4901 29.6933 22.4901 32C22.4901 34.3067 23.2876 36.5425 24.7474 38.3285C26.2072 40.1145 28.2396 41.341 30.5001 41.8V47.8C26.7005 47.2417 23.2285 45.3353 20.7181 42.429C18.2077 39.5227 16.8263 35.8104 16.8263 31.97C16.8263 28.1296 18.2077 24.4173 20.7181 21.511C23.2285 18.6047 26.7005 16.6983 30.5001 16.14V22.2ZM34.5001 50.54C36.2201 49.4 37.0201 49.5 37.6001 49.78C38.4568 50.4501 39.0912 51.3633 39.4201 52.4C39.9916 53.8113 40.8265 55.1009 41.8801 56.2C39.5153 57.117 37.0289 57.683 34.5001 57.88V50.54ZM6.50014 32C6.50592 25.4545 8.98027 19.1521 13.4292 14.351C17.878 9.54993 23.9741 6.60349 30.5001 6.1V12.1C25.4531 12.4575 20.7292 14.7147 17.2802 18.4167C13.8312 22.1187 11.9135 26.9903 11.9135 32.05C11.9135 37.1097 13.8312 41.9813 17.2802 45.6833C20.7292 49.3853 25.4531 51.6425 30.5001 52V58C28.8768 57.8878 27.2687 57.6131 25.7001 57.18C20.1739 55.6826 15.2965 52.4029 11.8248 47.85C8.35315 43.2971 6.48143 37.7255 6.50014 32ZM46.1001 54.14C44.5401 53.72 43.9401 52.62 43.0401 50.7C42.3821 48.8303 41.0956 47.2469 39.4001 46.22C38.645 45.8402 37.8181 45.6243 36.9736 45.5864C36.1292 45.5485 35.2863 45.6894 34.5001 46V6C37.5526 6.24132 40.5385 7.01995 43.3201 8.3C41.9212 9.16248 40.8002 10.4094 40.0909 11.8918C39.3816 13.3743 39.114 15.0296 39.3201 16.66C39.5141 18.1636 40.0254 19.6089 40.8201 20.9C40.9765 21.1852 41.0705 21.5003 41.0961 21.8245C41.1217 22.1487 41.0783 22.4746 40.9687 22.7808C40.8591 23.087 40.6857 23.3665 40.4602 23.6008C40.2346 23.8351 39.9619 24.0188 39.6601 24.14C35.2801 26.32 35.6601 31.72 36.6201 34.4C37.0837 36.0846 37.9097 37.6477 39.0401 38.98C39.8971 40.0129 40.9738 40.8416 42.1917 41.4056C43.4096 41.9695 44.7381 42.2546 46.0801 42.24C49.1898 42.2102 52.1785 41.0314 54.4714 38.9306C56.7642 36.8297 58.1992 33.9552 58.5001 30.86V32C58.4968 36.4423 57.3553 40.8097 55.1846 44.6855C53.0139 48.5613 49.8863 51.8163 46.1001 54.14Z" fill="#E26E40"/>
</g>
</svg>
