<svg width="65" height="64" viewBox="0 0 65 64" fill="none" xmlns="http://www.w3.org/2000/svg">
<g id="game 1">
<path id="Vector" d="M20.1802 12C17.4062 12 15.0562 13.27 13.4562 15.074C11.8542 16.878 10.8782 19.156 10.2522 21.5L4.77222 41.984C3.63422 46.236 6.17622 50.652 10.4242 51.792C12.6342 52.386 14.7342 51.624 16.1582 50.532C17.5822 49.438 18.6302 48.108 19.7102 47.028L26.6782 40.048H38.3222L45.2922 47.028C46.3702 48.108 47.4122 49.438 48.8382 50.532C50.2622 51.624 52.3622 52.386 54.5722 51.792C56.6185 51.2344 58.3613 49.8904 59.4208 48.0532C60.4803 46.2159 60.7705 44.0344 60.2282 41.984L54.7482 21.5C54.1222 19.156 53.1422 16.88 51.5422 15.074C49.9402 13.27 47.5902 12 44.8142 12H20.1802ZM23.4242 20.066C24.5382 20.086 25.4242 20.994 25.4042 22.098V24.07H27.3762C27.6428 24.0654 27.9076 24.1144 28.1549 24.2139C28.4022 24.3135 28.627 24.4616 28.8161 24.6496C29.0052 24.8375 29.1547 25.0615 29.2557 25.3082C29.3567 25.5549 29.4072 25.8194 29.4042 26.086C29.3842 27.2 28.4802 28.08 27.3762 28.066H25.4042V30.038C25.4442 32.744 21.3662 32.744 21.4042 30.038V28.066H19.4322C16.7282 28.106 16.7282 24.032 19.4322 24.07H21.4042V22.098C21.3999 21.831 21.4492 21.5658 21.549 21.3181C21.6489 21.0704 21.7973 20.8453 21.9856 20.6559C22.1738 20.4665 22.3981 20.3167 22.6452 20.2154C22.8923 20.1141 23.1572 20.0633 23.4242 20.066ZM41.4642 20.066C44.7542 20.066 47.4642 22.776 47.4642 26.066C47.4642 29.356 44.7542 32.066 41.4642 32.066C38.1742 32.066 35.4642 29.356 35.4642 26.066C35.4642 22.776 38.1742 20.066 41.4642 20.066Z" fill="#D9D9D9"/>
<path id="Vector_2" d="M41.4639 24.066C42.5919 24.066 43.4639 24.938 43.4639 26.066C43.4639 27.194 42.5919 28.066 41.4639 28.066C40.3339 28.066 39.4639 27.194 39.4639 26.066C39.4639 24.938 40.3339 24.066 41.4639 24.066Z" fill="#D9D9D9"/>
</g>
</svg>
